<?xml version="1.0" standalone="no"?>
<!DOCTYPE svg PUBLIC "-//W3C//DTD SVG 20010904//EN"
 "http://www.w3.org/TR/2001/REC-SVG-20010904/DTD/svg10.dtd">
<svg version="1.0" xmlns="http://www.w3.org/2000/svg"
 width="500.000000pt" height="500.000000pt" viewBox="0 0 500.000000 500.000000"
 preserveAspectRatio="xMidYMid meet">

<g transform="translate(0.000000,500.000000) scale(0.100000,-0.100000)"
fill="#000000" stroke="none">
<path d="M2450 3253 l0 -887 25 34 25 34 0 853 0 853 -25 0 -25 0 0 -887z"/>
<path d="M2495 2352 c-5 -4 -11 -11 -12 -17 0 -5 326 -182 725 -392 667 -350
728 -380 736 -362 6 12 6 23 0 28 -12 11 -1424 751 -1432 751 -4 0 -11 -4 -17
-8z"/>
</g>
</svg>
