# Blender v3.6.0 OBJ File: ''
# www.blender.org
mtllib pyramid.mtl
o Cube
v 0.000000 -0.010000 0.010000
v 0.000000 0.010000 0.009138
v 0.000000 0.010000 0.010000
v 0.000000 -0.010000 0.009138
v -0.010000 0.000000 0.010000
v 0.010000 0.000000 0.009138
v -0.010000 0.000000 0.009138
v 0.010000 0.000000 0.010000
v 0.000000 0.000000 0.010000
v 0.000000 -0.000000 -0.010000
vt 0.000000 0.000000
vt 0.375000 0.125000
vt 0.000000 0.000000
vt 0.000000 0.000000
vt 0.000000 0.000000
vt 0.375000 0.375000
vt 0.625000 0.375000
vt 0.000000 0.000000
vt 0.750000 0.500000
vt 0.750000 0.625000
vt 0.875000 0.625000
vt 0.625000 0.125000
vn 0.0000 0.0000 1.0000
vn 0.7071 -0.7071 0.0000
vn 0.7071 0.7071 0.0000
vn 0.6633 -0.6633 -0.3466
vn -0.6633 0.6633 -0.3466
vn -0.7071 -0.7071 0.0000
vn 0.6633 0.6633 -0.3466
vn -0.7071 0.7071 0.0000
vn -0.6633 -0.6633 -0.3466
usemtl Material
s off
f 3/1/1 5/2/1 9/3/1
f 6/4/2 8/5/2 1/6/2 4/7/2
f 5/2/1 1/6/1 9/3/1
f 8/5/3 6/4/3 2/8/3 3/1/3
f 8/5/1 3/1/1 9/3/1
f 9/3/1 1/6/1 8/5/1
f 6/4/4 4/9/4 10/10/4
f 2/8/5 10/10/5 7/11/5
f 5/2/6 7/12/6 4/7/6 1/6/6
f 2/8/7 6/4/7 10/10/7
f 5/2/8 3/1/8 2/8/8 7/12/8
f 7/11/9 10/10/9 4/9/9
